<svg width="16" height="14" viewBox="0 0 16 14" fill="none" xmlns="http://www.w3.org/2000/svg">
  <path d="M15.9693 1.54867C15.3793 1.808 14.7493 1.98467 14.086 2.06533C14.762 1.658 15.282 1.016 15.528 0.25C14.894 0.62 14.1913 0.889333 13.4433 1.03933C12.846 0.4 11.9947 0 11.0493 0C9.238 0 7.76933 1.46867 7.76933 3.278C7.76933 3.538 7.79933 3.788 7.854 4.02733C5.12733 3.89867 2.71067 2.58933 1.09333 0.61C0.808667 1.09133 0.649333 1.65067 0.649333 2.26C0.649333 3.4 1.22933 4.402 2.108 4.99067C1.57 4.97333 1.064 4.82533 0.622667 4.58V4.62067C0.622667 6.21067 1.75133 7.53667 3.25333 7.83867C2.978 7.91267 2.68733 7.95267 2.38933 7.95267C2.18 7.95267 1.97933 7.93267 1.77867 7.89533C2.19933 9.19733 3.40867 10.1467 4.848 10.1733C3.728 11.0527 2.30867 11.5767 0.78 11.5767C0.52 11.5767 0.260667 11.5613 0 11.532C1.45933 12.4613 3.17867 13.0047 5.038 13.0047C11.074 13.0047 14.3707 8.00733 14.3707 3.68067C14.3707 3.54133 14.3707 3.40067 14.3607 3.26067C15.0013 2.80133 15.5607 2.22067 16.0007 1.562L15.9693 1.54867Z" fill="#757575"/>
</svg>
